PathFileType	4	(X/Y/Z)	D:\TRACE\v60_Jaco2_6-2-23\JustArmDRS_Motion3_4-platform.trc
DataRate	CameraRate	NumFrames	NumMarkers	Units	OrigDataRate	OrigDataStartFrame	OrigNumFrames
100.00	100.00	      67	5	mm	100.00	3501	      7000
Frame#	Time	Left_Front			Right_Front			Left_Aft			Right_Aft			Post			
		X1	Y1	Z1	X2	Y2	Z2	X3	Y3	Z3	X4	Y4	Z4	X5	Y5	Z5	

3501	35.000	-747.72150	-2.41999	-653.35260	822.66541	-3.10969	-630.35791	-679.30011	18.55780	480.75833	735.27557	18.10007	586.50800	48.21874	1290.22241	-989.15411	
3502	35.010	-747.63007	-2.01071	-653.08875	822.67932	-2.74391	-630.30670	-679.31219	18.43509	480.80942	735.20264	17.79396	586.56354	48.23516	1290.68372	-988.19226	
3503	35.020	-747.69843	-1.72578	-653.05157	822.57654	-2.47976	-630.24963	-679.30707	18.31210	480.81186	735.16510	17.57578	586.57721	48.01638	1291.25439	-987.12079	
3504	35.030	-747.58270	-1.45957	-652.88928	822.58978	-2.32939	-630.21558	-679.36682	18.19680	480.83871	735.17023	17.33769	586.66150	47.77752	1291.71643	-986.44574	
3505	35.040	-747.56488	-0.96671	-652.85712	822.51074	-2.01095	-630.12677	-679.39868	17.93793	480.81873	735.17383	17.02305	586.68201	47.95863	1292.07532	-985.47668	
3506	35.050	-747.52490	-0.55575	-652.85565	822.48529	-1.61365	-630.05780	-679.45807	17.61421	480.94232	735.23889	16.72733	586.93976	48.18563	1292.66956	-984.45569	
3507	35.060	-747.52966	-0.19950	-652.68005	822.51013	-1.26719	-629.95660	-679.52551	17.35989	481.01886	735.24347	16.47710	587.08990	48.03253	1293.12280	-983.70197	
3508	35.070	-747.87946	0.27671	-652.72253	822.46838	-1.18127	-630.22375	-679.58392	17.00517	481.15973	734.98193	16.06482	586.90741	47.69361	1293.69153	-983.14148	
3509	35.080	-748.22156	0.70115	-652.64838	822.14154	-0.69259	-629.84930	-679.72662	16.68486	481.27374	734.79456	15.75059	586.98792	47.57862	1294.43237	-982.46606	
3510	35.090	-748.40375	0.97888	-652.73657	822.09515	-0.28657	-629.74799	-679.82501	16.50292	481.38147	734.78827	15.58066	587.07501	47.44696	1294.81934	-981.93518	
3511	35.100	-748.55322	1.28457	-652.63275	822.08990	0.20797	-629.67926	-679.97662	16.22679	481.53217	734.65558	15.33644	587.23462	47.50853	1295.26563	-981.27875	
3512	35.110	-748.42755	1.59683	-652.57532	821.90411	0.68985	-629.57751	-680.11346	15.93273	481.65744	734.56439	15.08127	587.38123	47.60109	1296.23474	-980.55853	
3513	35.120	-748.40308	2.04567	-652.30591	821.84045	1.16812	-629.53082	-680.25397	15.73879	481.71454	734.48602	14.58794	587.53967	47.52246	1296.88330	-979.85284	
3514	35.130	-748.50629	2.52775	-652.17871	821.81201	1.49330	-629.43304	-680.26660	15.47690	481.80060	734.21698	14.07760	587.61969	47.24655	1297.24695	-979.06769	
3515	35.140	-748.69745	2.55848	-652.49152	821.67230	2.05531	-629.25610	-680.37347	15.21751	481.89792	734.08704	13.79277	587.68829	46.99305	1298.18030	-978.07831	
3516	35.150	-748.66309	3.35841	-652.21564	821.45355	2.41076	-629.22052	-680.53796	14.85327	481.99225	733.86328	13.33717	587.76666	47.08120	1298.83289	-976.81146	
3517	35.160	-748.76654	3.86901	-652.16382	821.24121	2.92617	-629.04852	-680.45685	14.55055	482.14825	733.84747	12.95828	587.86353	46.80270	1299.46655	-975.55286	
3518	35.170	-748.69843	4.15311	-651.98083	821.50470	3.19349	-629.25726	-680.66125	13.99284	482.26187	733.87537	12.59809	588.02338	46.42424	1300.29053	-974.25073	
3519	35.180	-748.82074	4.56715	-651.74982	821.15875	3.98472	-628.89612	-680.77014	13.51485	482.39392	733.64410	12.17366	588.17609	46.51502	1301.21289	-972.67200	
3520	35.190	-750.48553	3.25129	-654.22528	820.84894	4.50135	-628.75116	-681.00989	13.27038	482.41293	733.39667	11.72709	588.47217	46.27299	1301.94849	-971.55933	
3521	35.200	-749.14423	5.54797	-651.72070	820.74689	5.07322	-628.53595	-681.19403	13.08449	482.59122	733.20734	11.41685	588.72552	46.14846	1302.73975	-970.06702	
3522	35.210	-749.44543	5.98540	-651.36499	820.96069	5.50846	-628.84198	-681.30170	12.73048	482.83890	733.35034	10.88361	588.54437	46.15643	1303.53333	-968.72833	
3523	35.220	-749.46375	6.34312	-651.00159	820.49127	6.17709	-628.44293	-681.48083	12.28097	483.07782	733.09967	10.46184	588.69019	45.91343	1304.42737	-967.53180	
3524	35.230	-749.44916	6.98403	-650.91406	820.34766	6.60554	-628.20374	-681.73059	11.91435	483.10831	732.83191	9.96021	588.80554	45.63122	1305.17615	-966.40924	
3525	35.240	-750.80969	8.87189	-650.31854	820.09424	7.29296	-628.07538	-681.96387	11.68824	483.37427	732.61414	9.47741	588.92493	45.58709	1306.08350	-965.22113	
3526	35.250	-751.07733	9.71239	-650.27515	819.98529	7.77697	-628.00232	-682.01343	11.20728	483.34122	732.42456	8.89835	589.07300	45.15272	1306.89648	-964.32233	
3527	35.260	-750.72064	9.88732	-650.37469	819.69092	8.45806	-627.92902	-682.44604	10.78488	483.47281	732.20599	8.45625	589.32654	44.87394	1307.61157	-963.38446	
3528	35.270	-750.83942	10.40281	-650.03430	819.52209	9.04115	-627.78271	-682.64166	10.42518	483.65125	732.09052	8.07032	589.40869	44.77794	1308.66382	-962.18658	
3529	35.280	-751.05920	10.93260	-649.92969	819.38959	9.61734	-627.58856	-682.76038	9.89298	483.81036	731.96790	7.72433	589.40271	44.75354	1309.47009	-961.00195	
3530	35.290	-751.44025	11.38282	-649.90088	818.98315	10.21335	-627.48859	-682.82434	9.46160	483.93384	731.76752	7.17467	589.57343	44.48304	1310.33325	-959.93719	
3531	35.300	-751.76093	12.10633	-650.06781	818.76733	10.76374	-627.23926	-682.96387	8.95010	484.12216	731.20435	6.39778	589.77582	43.90832	1311.25500	-958.51410	
3532	35.310	-751.99225	12.81125	-650.09760	818.47211	11.44079	-627.06641	-683.24237	8.51705	484.32669	730.98535	5.94257	589.95245	43.94238	1312.16846	-956.90179	
3533	35.320	-752.45422	13.87800	-649.77142	818.22198	12.13805	-626.90131	-683.71301	8.20741	484.38687	730.85486	5.58868	589.97278	43.22884	1313.14551	-955.49518	
3534	35.330	-752.68707	14.48111	-649.47772	817.94153	12.68660	-626.76257	-683.96082	7.82254	484.44427	730.66022	5.12563	590.26886	42.79644	1313.99670	-953.48340	
3535	35.340	-753.06433	14.88317	-649.14313	817.64917	13.34783	-626.69824	-684.19385	7.29474	484.58914	730.27167	4.39973	590.42517	42.65842	1314.89929	-951.92053	
3536	35.350	-753.10742	15.20566	-649.05884	817.53766	13.96363	-626.46771	-684.53027	6.86026	484.62564	730.17004	4.01793	590.52545	42.42356	1315.71106	-950.44476	
3537	35.360	-753.25092	15.73669	-648.89551	817.24915	14.64811	-626.20892	-684.79077	6.48053	484.62231	729.90076	3.49690	590.65521	42.24645	1316.75305	-948.68524	
3538	35.370	-753.56128	17.24581	-648.98920	816.96130	15.14120	-626.09949	-685.05017	5.88111	485.05533	729.47723	2.96744	590.82574	41.40517	1317.64880	-947.27325	
3539	35.380	-753.53296	17.49284	-648.73108	816.71216	15.85169	-626.00586	-685.26703	5.52672	485.26459	728.94629	2.20091	591.02380	41.56094	1318.86157	-945.93805	
3540	35.390	-754.12488	18.19296	-648.11798	816.42230	16.54753	-625.78247	-685.61523	5.25184	485.33069	728.88519	1.78291	591.21777	41.18838	1319.61450	-944.31708	
3541	35.400	-754.56757	18.53297	-648.07977	816.12097	17.22717	-625.66602	-686.08844	4.74540	485.48407	728.56476	1.37506	591.38196	40.68659	1320.41992	-943.43024	
3542	35.410	-755.19354	19.28225	-647.98627	815.60510	17.83767	-625.60907	-686.37976	4.23410	485.70078	728.36969	0.96073	591.37274	40.72820	1321.51929	-942.18457	
3543	35.420	-755.46271	19.81825	-648.08514	815.18561	18.41273	-625.38513	-686.74603	3.78110	485.75763	727.76678	0.31938	591.54633	40.27987	1322.57239	-940.74323	
3544	35.430	-755.82782	20.61619	-647.99854	814.66315	19.09100	-625.21326	-687.12097	3.28571	485.89883	727.29181	-0.38393	591.77454	39.74422	1323.38293	-939.65527	
3545	35.440	-756.09985	21.31967	-647.91760	814.47510	19.42138	-625.42712	-687.42139	2.83567	485.96835	727.01416	-0.74618	591.91345	39.07512	1324.30066	-938.27051	
3546	35.450	-756.37225	21.90718	-647.80316	813.96063	20.28578	-624.88190	-687.77783	2.58460	486.02042	726.54114	-1.19985	592.13586	38.88791	1325.26782	-936.81580	
3547	35.460	-756.79492	22.48580	-647.51685	813.65674	20.94797	-624.73175	-688.09613	2.12673	486.28156	726.49866	-1.69265	592.05359	38.78700	1326.13025	-935.59845	
3548	35.470	-757.18378	23.03996	-647.12579	813.32416	21.59971	-624.51996	-688.60565	1.53718	486.54843	726.05157	-2.18172	592.14099	38.22499	1327.15222	-934.12402	
3549	35.480	-757.57043	23.67602	-646.88043	812.97748	22.21837	-624.43536	-688.96674	1.13101	486.74017	725.39886	-2.89201	592.43451	37.88014	1327.91260	-932.53320	
3550	35.490	-758.32080	24.18658	-646.49921	812.48712	22.82751	-624.36560	-689.49042	0.70149	486.82999	725.03961	-3.29827	592.64087	37.24702	1328.99927	-930.76990	
3551	35.500	-758.73352	25.03359	-646.93304	811.94208	23.42529	-624.12421	-689.89539	0.17714	486.92105	724.56165	-3.78038	592.52148	36.66054	1329.62231	-929.31323	
3552	35.510	-759.14880	25.63989	-646.95959	811.44214	23.95084	-623.95465	-690.38220	-0.03093	486.91751	724.09558	-4.50906	592.85248	36.34750	1330.63562	-927.42395	
3553	35.520	-759.01611	26.17068	-646.52405	811.01428	24.58840	-623.84070	-690.83136	-0.42315	487.21033	723.82068	-4.81162	592.94745	36.08628	1331.54651	-926.26929	
3554	35.530	-759.84668	27.02755	-646.46985	810.64362	25.21100	-623.61157	-691.29602	-0.95042	487.24280	723.37927	-5.33946	593.17957	35.31102	1332.31653	-924.86035	
3555	35.540	-760.45117	27.73586	-646.00989	810.24542	25.78147	-623.47540	-691.69952	-1.24783	487.25952	722.78412	-6.08134	593.10071	35.02802	1332.92810	-923.55444	
3556	35.550	-760.73151	28.00141	-645.79962	809.74707	26.46194	-623.26160	-692.04218	-1.72680	487.41409	722.44073	-6.45213	593.29919	34.64809	1334.05835	-922.32141	
3557	35.560	-761.04138	28.45682	-645.64374	809.34967	26.99541	-623.26593	-692.63623	-2.14829	487.68750	721.90887	-6.89213	593.41138	33.96598	1334.90869	-921.35065	
3558	35.570	-761.79376	29.45346	-645.51294	808.65576	27.59581	-623.10895	-693.18036	-2.56846	487.91931	721.39423	-7.41213	593.37378	33.56972	1335.82922	-920.24976	
3559	35.580	-762.16174	29.69066	-645.82666	808.18042	28.08154	-622.92047	-693.74976	-2.88612	487.93866	720.86865	-7.77157	593.60443	32.67757	1336.47681	-918.97626	
3560	35.590	-762.96539	30.55834	-645.59937	807.56927	28.67217	-622.88940	-694.17383	-3.40726	488.11188	720.35284	-8.44875	593.92041	32.64013	1337.14734	-917.73065	
3561	35.600	-763.44202	30.99509	-645.26868	807.09869	29.29662	-622.71143	-694.58887	-3.70224	488.06656	719.93188	-8.61028	593.96338	32.13166	1337.98657	-916.67462	
3562	35.610	-763.70599	31.43406	-645.06317	806.68719	29.77359	-622.57043	-695.08716	-4.00086	488.21143	719.77899	-8.96336	593.91949	31.43188	1338.75513	-915.37152	
3563	35.620	-763.94653	31.95067	-644.62988	806.19519	30.31003	-622.41876	-695.62860	-4.45505	488.44785	718.76904	-9.53379	593.85181	31.07521	1339.64978	-914.09454	
3564	35.630	-764.51471	32.44211	-644.49951	805.54694	30.73482	-622.23657	-696.27264	-4.78152	488.58362	718.08209	-10.10899	593.91162	30.18007	1340.38928	-912.66003	
3565	35.640	-765.27100	33.01110	-644.61359	804.95557	31.16967	-622.16022	-696.77777	-5.06336	488.63666	717.56354	-10.52314	594.30310	29.88347	1340.96594	-911.55640	
3566	35.650	-765.99640	33.71801	-644.72937	804.24152	31.64107	-622.00446	-697.42737	-5.40454	488.74390	717.03705	-10.84348	594.54932	28.96975	1341.71692	-910.14673	
3567	35.660	-766.68982	34.31901	-644.76898	803.65063	32.05749	-621.88922	-697.92480	-5.76047	488.84192	716.63672	-11.26696	594.53485	28.57186	1342.30066	-909.08191	
